<?xml version="1.0"?><svg version="1.2" baseProfile="tiny-ps" viewBox="0 0 180 180" xmlns="http://www.w3.org/2000/svg" xmlns:xlink="http://www.w3.org/1999/xlink"><title>Joe Speaking</title><g><g fill="#eee7d5" transform="matrix(.1 0 0 -.1 0 180)"><path d="M750 1779c-82-14-210-61-297-110l-78-44-100-100-100-100-44-78c-54-95-85-179-107-288L7 976l6-120 5-121 22-75c11-41 39-111 61-156l39-80 63-78 62-77 75-60 75-60 100-49 100-48 65-17 65-16 107-6 108-6 76 12c96 16 179 43 270 87l70 34 81 65 82 64 56 68 57 68 48 100c27 55 56 127 65 160l16 60 6 112 6 113-12 76c-62 382-362 686-745 753l-60 11-85-1c-47-1-111-5-141-10z"/></g><g fill="#e6b484" transform="matrix(.1 0 0 -.1 0 180)"><path d="m779 1674-56-11-53-29c-29-16-72-47-94-69l-42-40-23-50-24-50-7-85c-4-47-8-72-9-57l-1 28-16-15c-8-9-23-16-32-16s-37-16-61-35l-44-35h-37v12c0 6-3 9-6 5-3-3-23 3-42 14l-37 19h-53l-20-47c-11-27-28-77-38-113l-18-65V895l-1-140 23-79 23-80 40-75c21-42 61-106 89-142l49-66 78-61c93-74 179-120 293-158l85-28h150l150-1 65 18 65 17 100 49 100 50 60 48c32 27 85 79 116 116l57 68 40 77 40 77 15 65 15 65 1 75 2 76-10 27-11 27h-18c-10 0-22 3-25 6l-6 7 19 25 20 25v62l-18 35-17 35-20 1c-11 0-31 6-44 13l-23 13 5-9 6-9-67 14-67 13-40-6-39-6-17-15-17-16-13 24c-6 13-16 26-22 29-5 4-13 24-16 45l-6 39-42 3-41 3 5 19 5 18-20 20-20 20-22 66c-12 37-20 70-17 72 3 3 17-20 32-50 15-31 30-56 32-56 3 0 2 30-2 67l-7 68-21 30c-12 16-22 36-22 44v15l-70 42-70 42-40 6c-22 3-58 7-80 9l-40 3-56-12zm320-256c12-32 3-54-36-88l-34-30h-79l-20 20-20 20v49l27 26 28 25h126l8-22zm110-303 1-30-10 15c-5 8-9 31-9 50v35l9-20c5-11 9-33 9-50zm-680 42c-2-1-13-9-24-17l-20-15 14 18c7 9 18 17 24 17s8-1 6-3zm-102-95c17-6 34-8 37-4 12 11 5-14-9-31l-14-19-19 6c-11 4-23 13-26 21l-5 15h-53l-53 1 22 18 23 19 32-8c18-5 47-13 65-18zm-144 11c-7-2-21-2-30 0l-18 5h60l-12-5zm1155-16 3-17h-15c-18 0-29 16-21 31 9 14 29 6 33-14zm-220-108-5-76-35-35-35-36 28 82 29 81v41c0 22 3 44 8 48l7 8 4-18c2-10 1-53-1-95zm288 100 6-11-11-11-11-11-11 11-11 11 6 11c4 6 11 11 16 11s12-5 16-11zm-431-19 6-10h-10c-6 0-11 5-11 10 0 6 2 10 4 10 3 0 8-4 11-10zm493-7c-4-22-22-20-26 1l-3 16h32l-3-17zM514 942l5-8-37 4c-56 5-62 10-15 11 23 1 44-3 47-7zm549-39c-13-2-33-2-45 0l-23 4h90l-22-4zm560-80 59-16 15-24 16-24-7-7-8-7-9 17-9 16-75 27c-106 39-95 50 18 18zm-102-76c-1-12-15-9-19 4l-4 12 12-4c6-3 11-8 11-12zm67-18c-2-6-8-10-13-10s-11 4-13 10l-4 11h34l-4-11zm52-19c0-5-4-10-10-10-5 0-10 5-10 10 0 6 5 10 10 10 6 0 10-4 10-10zm-171-177c-15-17-26-16-33 3l-6 17 12 14 12 15 13-18 13-17-11-14z"/></g><g fill="#a0b8d0" transform="matrix(.1 0 0 -.1 0 180)"><path d="m779 1674-56-11-53-29c-29-16-72-47-94-69l-42-40-23-50-24-50-7-85c-4-47-8-72-9-57l-1 28-16-15c-8-9-23-16-32-16s-37-16-61-35l-44-35h-37v12c0 6-3 9-6 5-3-3-23 3-42 14l-37 19h-53l-20-47c-11-27-28-77-37-112l-16-63 4-22 4-21 2 21 1 21 19 17 19 17 36-10 37-10 27 15c15 7 37 14 50 14h22v-21l21 14 20 15 32-8c18-4 39-10 47-14 8-3 27-8 43-10l27-5v65l16 22 15 22h45l25-27c14-16 33-40 42-55l17-28h29l3 38 3 37 24-3c14-1 33-10 43-19l18-16v-48l25-25 26-26 52 7c92 13 132 46 144 118l6 38 11-4c6-2 18-19 27-38s26-42 37-53l21-18 38 4c21 3 46 8 57 13l19 8-7-99c-3-54-6-112-6-128l1-29 31-63 32-64h10c6 0 42-25 79-56l69-55 14 5 14 5 11-20 11-21-5-20-6-20 13-36 13-37-8-20c-4-11-8-24-8-29l-1-8 15 12 16 13 10-10 11-11 19 5 20 6 28 41c47 68 87 157 103 226l16 65 1 75 2 76-10 27-11 27h-18c-10 0-28 9-39 19l-21 19-13-11c-7-7-5-2 5 10l19 23v84l-27 23-26 22-52 16c-82 24-157 17-179-18l-7-10-18 29c-10 16-23 32-28 35-5 4-12 24-15 45l-6 39h-172l-42-29-43-30-21 13-21 13h-66l-66-1-45-15-44-16h-95v19c0 10 8 45 19 77 10 33 21 80 25 107l7 47h78l14 15 15 15 46-6 46-7 5 15 6 16 39-10 40-10 17 7c10 4 39 9 64 10l46 3 22-38c11-21 21-45 21-53 0-9 5-19 11-23l12-7-8 69-7 69-21 30c-12 16-22 36-22 44v15l-70 42-70 42-40 6c-22 3-58 7-80 9l-40 3-56-12zm420-498c6-25 11-56 11-69v-25l-34-6-34-6-24 9c-29 11-38 29-38 76v34l22 15 22 16h64l11-44zm-245-12 16-15v-58l-23-26-23-27-45-5-46-5-22 28-22 28 3 35 3 36 25 12 25 13h94l15-16zm484-106-3-23h-30l-3 23-3 22h42l-3-22zm72-18v-20h-40v40h40v-20zm68-13 3-17-16-6-16-7-11 11-11 11 7 16 6 16 17-3 18-3 3-18zm45-204 59-16 15-24 16-24-7-7-8-7-9 17-9 16-75 27c-106 39-95 50 18 18zm-102-76c-1-12-15-9-19 4l-4 12 12-4c6-3 11-8 11-12zm67-18c-2-6-8-10-13-10s-11 4-13 10l-4 11h34l-4-11zm52-19c0-5-4-10-10-10-5 0-10 5-10 10 0 6 5 10 10 10 6 0 10-4 10-10zm-518 478c-7-7-12-22-12-34v-22l15-12 15-12 15 6 15 5v57l-12 12c-7 7-15 12-18 12s-11-5-18-12zm-242-42-12-15 4-22 3-22 17-10 16-11 16 13 16 13v22c0 40-36 60-60 32zm224 160-31-14-7-17c-9-25-5-26 39-14l38 11 29-6 28-5v12c0 21-14 35-40 41l-25 6-31-14zm-300-45c-36-22-48-37-40-50l6-9 72 19c39 11 82 19 95 19h23v10c0 16-37 30-82 30h-43l-31-19zm-299-141-18-20 9-32 10-33h14c8 1 30-10 48-23l32-23 6 16 6 16-17 44-17 45-21 15c-27 19-30 19-52-5zm-329-90-39-7-14-19-13-18 6-51c4-27 11-60 15-73l9-22 25-10c15-6 43-10 64-10h37l12 12c7 7 12 8 12 4 0-5 11-1 24 8l24 15 10-28 10-28 40-7 41-6 6-20 6-19-10-20c-14-25-69-71-86-71h-13l-5 19-5 20-41 12-41 12-40-13c-22-7-45-19-51-27l-12-13 5-45 6-45 23-20c13-10 32-19 42-20h17v-30h12c6 0 9-2 6-6-3-3-2-20 2-39l8-35-9 6-9 5v-79l63-58C426 197 549 128 695 89l80-22h260l88 27c105 31 212 83 286 138l53 40-6 51c-4 28-20 85-36 126l-30 76-31 38-30 37-47 27c-66 37-90 61-112 110-10 24-23 43-27 43-4-1-24-14-43-30l-34-30h-97l-47 24c-27 14-70 42-98 64l-49 39-15 29c-8 16-33 48-56 71l-42 43-27-14-27-14-17 4-16 5 20-11c11-6 31-25 43-43l24-32-4 33-5 33 11-4c6-2 30-32 54-68l44-64-41 40-41 39-1-24-1-25-5 18c-5 21-6 21-73 1l-54-16-28-30c-15-17-28-26-28-21 0 6 8 18 19 27l19 17-11 42c-6 23-15 45-21 50l-11 7-50-5-50-6 14 9 14 10-14 43-14 44-85 2c-47 0-103-2-124-7zm174-60c0-5-8-10-17-11-10 0-44-4-76-8l-57-7 3 10 4 11 44 6c24 3 56 7 72 7l27 2v-10zm-40-40v-10h-17c-10 0-35-3-55-6l-38-7v22l28 4c15 2 39 5 55 6l27 1v-10zm130-70c0-5-2-10-4-10-3 0-8 5-11 10l-6 10h10c6 0 11-4 11-10zm40 0c0-5-2-10-4-10-3 0-8 5-11 10l-6 10h10c6 0 11-4 11-10zm-25-158-28-27 24 31c13 17 26 30 28 27 3-2-8-16-24-31zm585-71v-27l-30-47-30-48-23 12c-43 23-107 70-107 79 0 5 24 22 53 36 28 15 63 35 77 46l25 19 17-21 18-22v-27zm-776 32 7-16-9-9-9-9-27 12-27 13 23 13c30 16 35 16 42-4zm741 367-7-11 6-24 6-24 21-6 20-7 16 13 16 14-24 5-24 6-11 23-12 23-7-12zm-28-107-68-4-6-15-5-15 17-19c10-11 35-25 56-31l37-12 35 7 35 7 27 35c15 19 25 37 23 39-8 8-84 12-151 8zm108-13-6-10-67 2-67 1 55 7c30 4 63 7 73 8l18 2-6-10zM62 865c-1-33 2-78 6-99l7-39 10 1 10 1 3 25 3 25-12 22c-6 13-15 45-19 73l-8 51v-60zm119-80c0-11 4-27 9-35l10-15-1 15c0 8-4 24-9 35l-9 20v-20zm-31-5c0-5 5-10 10-10 6 0 10 5 10 10 0 6-4 10-10 10-5 0-10-4-10-10z"/></g><g fill="#f6971f" transform="matrix(.1 0 0 -.1 0 180)"><path d="M764 1666c-56-14-106-41-173-94l-44-36-31-65-31-66v-85l1-85 13-37 13-38h44l25-27c14-16 33-40 42-55l17-28h29l3 38 3 37 24-3c14-1 33-10 43-19l18-16v-48l25-25 26-26 52 7c92 13 132 46 144 118l6 38 11-4c6-2 17-17 25-33 7-16 23-39 34-51l20-23h68l38 19 38 20 12 29 12 29-3 54-3 54h-162l-42-29-43-30-21 13-21 13h-66l-66-1-45-15-44-16h-95v19c0 10 8 45 19 77 10 33 21 80 25 107l7 47h78l14 15 15 15 46-6 46-7 5 15 6 16 39-10 40-10 17 7c10 4 39 9 65 11l47 2 27-54c15-30 28-53 31-51 2 3-1 25-7 51s-8 51-5 56l5 8-26 31-25 31 6 9 6 10-43 31c-23 17-53 33-67 37-14 3-30 12-36 18l-10 13-85 5-85 5-51-12zm426-463 1-18 13 18c7 9 18 17 25 17h11v-98l-18-22-19-23-47-1-48-1-14 19-14 20v75l22 15 22 16h66v-17zm-236-39 16-15v-58l-23-26-23-27-45-5-46-5-22 28-22 28 3 35 3 36 25 12 25 13h94l15-16zm168 24c-7-7-12-22-12-34v-22l15-12 15-12 15 6 15 5v57l-12 12c-7 7-15 12-18 12s-11-5-18-12zm-242-42-12-15 4-22 3-22 17-10 16-11 16 13 16 13v22c0 40-36 60-60 32zm40-6c0-5-4-10-10-10-5 0-10 5-10 10 0 6 5 10 10 10 6 0 10-4 10-10zm184 166-31-14-7-17c-9-25-5-26 39-14 21 6 49 9 62 6l23-4 6 8c6 11-32 49-48 49-7-1-27-7-44-14zm-300-45c-36-22-48-37-40-50l6-9 72 19c39 11 82 19 95 19h23v10c0 16-37 30-82 30h-43l-31-19zm-299-141-18-20 9-32 10-33h14c8 1 30-10 48-23l32-23 6 16 6 16-17 44-17 45-21 15c-27 19-30 19-52-5zm869 8c-26-12-44-48-44-88v-30l21-21 20-20-2-17c-1-9-1-20 0-24l1-6 34 9 34 9 41-9 41-9 37 8 36 9 20 19 20 20v86l-27 23-26 22-52 16c-59 17-123 19-154 3zm64-70-3-23h-30l-3 23-3 22h42l-3-22zm72-18v-20h-40v40h40v-20zm68-13 3-17-16-6-16-7-11 11-11 11 7 16 6 16 17-3 18-3 3-18zm-1402 3-39-7-14-19-13-18 6-51c4-27 11-60 15-73l9-22 25-10c15-6 43-10 64-10h37l12 12c7 7 12 8 12 4 0-5 11-1 24 8l24 15 10-28 10-28 40-7 41-6 6-20 6-19-10-20c-14-25-69-71-86-71h-13l-5 19-5 20-41 12-41 12-40-13c-22-7-45-19-51-27l-12-13 5-45 6-45 23-20c13-10 32-19 42-20h17v-30h12c6 0 9-2 6-6-3-3-2-20 2-39l8-35-9 6-9 5v-79l63-58C426 197 549 128 695 89l80-22h260l88 27c105 31 212 83 286 138l53 40-6 51c-4 28-20 85-36 126l-30 76-31 38-30 37-47 27c-66 37-90 61-112 110-10 24-23 43-27 43-4-1-24-14-43-30l-34-30h-97l-47 24c-27 14-70 42-98 64l-49 39-15 29c-8 16-33 48-56 71l-42 43-27-14-27-14-17 4c-9 3-4-2 11-11 15-8 35-28 43-43l16-27-4 33-4 33 11-4c6-2 30-32 54-68l44-64-41 40-41 39-1-24-1-25-5 18c-5 21-6 21-73 1l-54-16-28-30c-15-17-28-26-28-21 0 6 8 18 19 27l19 17-11 42c-6 23-15 45-21 50l-11 7-50-5-50-6 14 9 14 10-14 43-14 44-85 2c-47 0-103-2-124-7zm174-60c0-5-8-10-17-11-10 0-44-4-76-8l-57-7 3 10 4 11 44 6c24 3 56 7 72 7l27 2v-10zm-40-40v-10h-17c-10 0-35-3-55-6l-38-7v22l28 4c15 2 39 5 55 6l27 1v-10zm130-70c0-5-2-10-4-10-3 0-8 5-11 10l-6 10h10c6 0 11-4 11-10zm40 0c0-5-2-10-4-10-3 0-8 5-11 10l-6 10h10c6 0 11-4 11-10zm-25-158-28-27 24 31c13 17 26 30 28 27 3-2-8-16-24-31zm585-71v-27l-30-47-30-48-23 12c-43 23-107 70-107 79 0 5 24 22 53 36 28 15 63 35 77 46l25 19 17-21 18-22v-27zm-776 32 7-16-9-9-9-9-27 12-27 13 23 13c30 16 35 16 42-4zm741 367-7-11 6-24 6-24 21-6 20-7 16 13 16 14-24 5-24 6-11 23-12 23-7-12zm-28-107-68-4-6-15-5-15 17-19c10-11 35-25 56-31l37-12 35 7 35 7 27 35c15 19 25 37 23 39-8 8-84 12-151 8zm113-12v-9l-40-7-40-7-32 8-33 9 55 6c30 3 63 6 73 7l17 2v-9z"/></g><g fill="#ce7028" transform="matrix(.1 0 0 -.1 0 180)"><path d="M764 1666c-56-14-106-41-173-94l-44-36-31-65-31-66v-85l1-85 13-37 13-38h44l25-27c14-16 33-40 42-55l17-28h29l3 38 3 37 24-3c14-1 33-10 43-19l18-16v-48l25-25 26-26 52 7c92 13 132 46 144 118l6 38 11-4c6-2 17-17 25-33 7-16 23-39 34-51l20-23h68l38 19 38 20 12 29 12 29-3 54-3 54h-162l-42-29-43-30-21 13-21 13h-66l-66-1-45-15-44-16h-95v19c0 10 8 45 19 77 10 33 21 80 25 107l7 47h78l14 15 15 15 46-6 46-7 5 15 6 16 39-10 40-10 17 7c10 4 39 9 65 11l47 2 27-54c15-30 28-53 31-51 2 3-1 25-7 51s-8 51-5 56l5 8-26 31-25 31 6 9 6 10-43 31c-23 17-53 33-67 37-14 3-30 12-36 18l-10 13-85 5-85 5-51-12zm426-463 1-18 13 18c7 9 18 17 25 17h11v-98l-18-22-19-23-47-1-48-1-14 19-14 20v75l22 15 22 16h66v-17zm-236-39 16-15v-58l-23-26-23-27-45-5-46-5-22 28-22 28 3 35 3 36 25 12 25 13h94l15-16zm168 24c-7-7-12-22-12-34v-22l15-12 15-12 15 6 15 5v57l-12 12c-7 7-15 12-18 12s-11-5-18-12zm-242-42-12-15 4-22 3-22 17-10 16-11 16 13 16 13v22c0 40-36 60-60 32zm40-6c0-5-4-10-10-10-5 0-10 5-10 10 0 6 5 10 10 10 6 0 10-4 10-10zm184 166-31-14-7-17c-9-25-5-26 39-14 21 6 49 9 62 6l23-4 6 8c6 11-32 49-48 49-7-1-27-7-44-14zm-300-45c-36-22-48-37-40-50l6-9 72 19c39 11 82 19 95 19h23v10c0 16-37 30-82 30h-43l-31-19zm-287-132-17-10v-59h9c5 0 11 5 13 11l4 11 24-39 25-38 18-3 17-3v18c0 10-9 37-19 60l-19 41-19 10-19 10-17-9zm814-81-1-38 20-20c11-11 20-26 20-32v-13l10 15 9 15-21 22c-11 12-24 37-28 55l-8 33-1-37zm-331-42c0-8 7-22 16-31l16-16 16 3c8 2 17 8 19 14l4 12-26 6c-14 4-25 11-25 16 0 6-4 10-10 10-5 0-10-6-10-14zm-884-13c-3-10-1-45 4-77l10-60 14-15 15-14 57-5 56-5-11 22-12 21h-87l-5 13c-3 8-8 39-12 71-4 31-11 59-15 61l-9 5-5-17zm509-24-30-19h13c7 0 22-15 33-32l21-33-4 33-5 32h8c5 0 16-12 26-26s33-46 52-72l33-47-46 45-46 44-1-24-1-25-5 18c-5 21-7 21-68 3l-47-15-24-22-24-23-10-37-11-38-26-31c-14-17-28-29-30-26-3 3 6 19 21 36 14 18 29 44 32 58 3 15 10 36 16 47l11 20-14-10-14-11-67 1c-72 0-81-9-19-19l40-6 6-20 6-19-10-20c-6-10-24-30-41-45l-31-25-10-30-11-30-43-26c-24-14-46-25-48-25s-7 12-10 28l-6 27-47 39-47 39 5-51 5-51 24-20c13-11 32-20 42-21h17v-15c0-8 4-15 9-15h10l-5-73-5-74 63-59C427 197 550 128 695 89l80-21h115l115-1 70 17c123 29 254 87 320 141l30 24-21-5-21-6-7 48c-3 26-6 60-6 76v29l-10-6-10-6V234l-34-37-34-37h-34c-19 0-38-3-42-7-10-10-34-15-101-19l-60-4-90 16c-49 9-119 17-155 18l-65 2-25 15c-14 8-50 31-81 52l-57 37-37 73c-21 39-57 102-81 138-24 37-44 69-44 72 0 2 13 10 30 17l30 12 33-6c19-3 58-18 88-33 30-14 95-43 144-63l90-37 9-67 9-68-12-49-13-50 11-13 12-14 17 5c9 2 24 17 33 32l16 28-21 9-21 9 2 20c3 21-14 164-24 202l-5 23h31l3-27 3-28 43-3 44-3 46 15c25 9 49 16 53 16 10 0 28-126 26-180l-2-45 24 3c34 3 38 10 16 25l-18 14-2 59c-2 32-8 87-15 121l-12 62-28-29-27-28-35-7-36-7-24 7c-12 4-31 15-41 24l-19 16h-51l-52 1-71 35c-121 60-202 119-165 119 5 0 25-7 46-16l37-15-27 35-27 36 6 15 5 15h55l25-24c15-14 64-48 111-76l85-51 3 11c2 6 23 20 45 31 23 12 57 33 76 47l34 25 19-22 18-23v-54l-31-50-31-49 22 20c37 32 87 116 104 175 9 29 16 55 16 57 0 3-13-5-29-16l-29-21h-93l-47 24c-27 14-70 42-98 64l-49 39-15 29c-17 33-68 92-90 103l-15 8-30-18zM430 595c0-2-16-13-36-23l-36-18 29-19c35-23 45-35 88-111 36-63 86-195 84-223l-1-16-5 15c-4 8-27 35-53 60-44 42-89 110-73 110 4 0-2 6-12 14-10 7-19 20-21 28-3 21-13 58-26 91l-10 27h-28l-28-50c-31-58-49-68-21-12 25 51 47 75 93 106 37 25 56 32 56 21zm990 355c-8-5-25-10-38-10h-23l5-9 6-9 34 9 34 9 41-9 41-9 36 8c50 12 49 15-4 15-26 0-63 3-82 7l-35 8-15-10zm-510-40-15-9 11-18c6-10 26-26 45-36l34-18 44 4 45 5 28 33c33 41 34 49 8 49h-20v-18l-40-7-40-7-32 8-33 9 55 6 55 6-65 1-65 2-15-10zm-570-11c0-7-8-18-17-25l-18-13 23 2 22 1v23c0 13-2 23-5 23s-5-5-5-11zm817-345c-27-26-46-49-42-52 6-7 72 55 86 81 14 25 10 22-44-29z"/></g><g fill="#31272c" transform="matrix(.1 0 0 -.1 0 180)"><path d="M764 1666c-56-14-106-41-173-94l-44-36-31-65-31-66v-85l1-85 13-38 13-38 15 6 16 5 23-15c13-9 35-33 49-55s30-40 35-40h10v80h23c12 0 32-3 44-6l23-6 11-39 12-38 24-23 23-22 48 1 48 1 30 15 30 15 12 24c6 12 15 39 20 58l8 35h27l14-40c7-22 21-46 30-52l17-13h38c21 0 53 6 72 14l33 14 12 29 12 30-3 54-3 54h-152l-42-29-41-29-40 13-39 13-68-6-68-6-37-15-37-16h-91v65l21 45 21 45 5 61 6 61 45-5 45-5 12 16 11 16 44-11 43-11 11 14 11 15h50c28 0 73 2 100 4l50 5 27-54c15-30 31-57 34-60l6-6-6 20c-3 11-8 42-10 69l-5 49-27 28-28 29h25l-7 11c-3 6-27 24-52 40l-46 29h-47l6 10 6 9-23 5c-13 3-54 7-93 10l-70 5-51-13zm426-453 11-18 5 13c3 6 12 12 20 12h14v-98l-18-22-17-21-41-6-42-5-21 21-21 21v38c0 47 9 61 46 72 43 13 52 12 64-7zm-247-32 24-10 7-25 6-26-14-35-15-35-26-10c-34-13-81-13-105 0l-19 10-11 40-11 40 11 20 11 20 27 6c15 3 32 7 37 9 20 7 54 5 78-4zm174 2c-4-3-7-16-7-28v-23l15-12 15-12 15 12 15 12v24c0 12-4 25-9 28l-9 6-5-12-5-13-1 13c-1 13-14 16-24 5zm-235-35c-7-7-12-22-12-35v-22l17-10 17-9 18 9 18 10v22c0 24-17 47-35 47-6 0-16-5-23-12zm38-8c0-5-4-10-10-10-5 0-10 5-10 10 0 6 5 10 10 10 6 0 10-4 10-10zm172 154c-12-8-22-22-22-30v-15l19 11 20 10h92l-11 20-11 20h-65l-22-16zm-286-33c-16-11-33-27-38-35l-9-16h13c7 0 35 7 62 15s64 15 82 15h33l6 10 6 10-26 10c-14 6-43 10-63 10h-37l-29-19zM637 926c21-28 28-26 18 3l-6 21h-30l18-24zm443-22-25-14h-36c-20 0-51 5-68 11l-33 11-9-9-9-9 12-16 13-17 78-3 78-3 20 25c31 41 24 49-21 24zm-462-60-28-15v-16c0-19 38-83 50-83 5 0 14 9 20 19l10 20v91h-12c-7-1-25-8-40-16zm430-136-27-9 16-35c9-19 20-34 24-34 5 0 19 81 15 86-1 1-13-3-28-8zM825 460c3-5 8-10 11-10 2 0 4 5 4 10 0 6-5 10-11 10h-10l6-10z"/></g></g></svg>